<mxfile host="app.diagrams.net" modified="2024-03-08T21:33:09.766Z" agent="Mozilla/5.0 (Windows NT 10.0; Win64; x64) AppleWebKit/537.36 (KHTML, like Gecko) Chrome/121.0.0.0 Safari/537.36 OPR/107.0.0.0" version="23.1.8" etag="iVnV84lFWOoaSqRWhpcQ" type="github">
  <diagram name="Page-1" id="l30wwkCEXuiyY7lltVBF">
    <mxGraphModel>
      <root>
        <mxCell id="0" />
        <mxCell id="1" parent="0" />
      </root>
    </mxGraphModel>
  </diagram>
</mxfile>
